<?xml version="1.0" standalone="no"?>
<!DOCTYPE svg PUBLIC "-//W3C//DTD SVG 20010904//EN"
 "http://www.w3.org/TR/2001/REC-SVG-20010904/DTD/svg10.dtd">
<svg version="1.0" xmlns="http://www.w3.org/2000/svg"
 width="1280.000000pt" height="1032.000000pt" viewBox="0 0 1280.000000 1032.000000"
 preserveAspectRatio="xMidYMid meet">
<g transform="translate(0.000000,1032.000000) scale(0.100000,-0.100000)"
fill="#000000" stroke="none">
<path d="M120 10292 c-59 -29 -87 -63 -109 -130 -13 -39 -12 -44 15 -99 28
-55 52 -76 469 -411 242 -195 562 -452 710 -571 l270 -218 653 -2289 c359
-1259 652 -2295 652 -2302 0 -7 -306 -447 -681 -979 -374 -531 -686 -978 -693
-992 -47 -91 -13 -199 78 -249 29 -16 316 -17 4766 -20 2604 -2 4763 0 4797 3
95 10 162 66 177 150 16 82 -47 181 -129 204 -29 8 -1303 11 -4597 11 -2821 0
-4559 4 -4563 9 -5 9 1090 1575 1138 1628 l20 23 3298 2 3297 3 42 30 c32 23
369 509 1539 2216 823 1203 1505 2208 1515 2233 17 45 17 50 1 91 -35 94 -102
140 -191 133 -72 -6 -109 -37 -194 -161 -39 -56 -82 -117 -96 -134 l-25 -33
-5142 0 c-2828 0 -5148 4 -5155 8 -7 5 -50 140 -96 300 -48 169 -93 305 -106
324 -29 43 -1466 1196 -1527 1225 -59 29 -66 28 -133 -5z m2454 -2068 c8 -20
8 -1148 0 -1168 -5 -13 -24 -16 -100 -16 -88 0 -95 1 -104 23 -15 34 -330
1144 -330 1162 0 13 34 15 264 15 231 0 265 -2 270 -16z m1520 0 c3 -9 6 -276
6 -594 0 -495 -2 -579 -15 -590 -11 -9 -163 -11 -655 -8 -556 3 -642 5 -650
18 -11 16 -14 1147 -4 1174 6 14 73 16 659 16 586 0 653 -2 659 -16z m1626
-589 c0 -475 -3 -607 -12 -610 -7 -3 -326 -2 -708 2 l-695 8 -3 603 -2 602
710 0 710 0 0 -605z m1635 -5 l0 -605 -704 -3 c-512 -1 -708 1 -717 9 -12 9
-14 115 -14 594 0 321 3 591 6 599 6 15 75 16 718 14 l711 -3 0 -605z m1753
-2 l-3 -613 -755 0 c-415 0 -763 3 -772 7 -17 7 -18 45 -18 606 0 329 3 602 7
605 3 4 352 7 775 7 l768 0 -2 -612z m1750 -5 l2 -613 -25 -6 c-14 -3 -362 -2
-773 2 l-747 9 -3 600 c-1 330 0 606 3 613 3 10 163 12 772 10 l768 -3 3 -612z
m1269 598 c-2 -10 -190 -289 -417 -620 l-412 -601 -103 0 c-57 0 -110 3 -119
6 -14 6 -16 69 -16 613 0 334 3 611 7 614 3 4 245 7 536 7 510 0 529 -1 524
-19z m-9557 -1400 c12 -24 13 -380 1 -400 -7 -11 -11 -10 -19 5 -19 37 -114
386 -108 400 4 10 22 14 60 14 44 0 57 -4 66 -19z m1518 -3 c16 -13 18 -988 2
-1019 -10 -18 -28 -19 -655 -19 -627 0 -645 1 -655 19 -13 26 -14 995 0 1020
9 17 43 18 652 13 407 -3 648 -8 656 -14z m1370 5 l262 -6 0 -513 0 -514 -22
-5 c-13 -3 -331 -4 -708 -3 l-685 3 -3 510 c-1 281 0 516 3 523 5 14 683 17
1153 5z m1890 -15 c17 -17 17 -999 0 -1016 -17 -17 -1399 -17 -1416 0 -9 9
-12 135 -12 504 0 271 3 499 6 508 6 14 77 16 708 16 533 0 705 -3 714 -12z
m1750 -3 c9 -4 12 -114 12 -509 0 -450 -2 -505 -16 -510 -20 -8 -1498 -8
-1518 0 -14 5 -16 60 -16 514 0 398 3 509 13 513 15 5 1507 -3 1525 -8z m1754
-11 c4 -3 8 -101 8 -218 l0 -214 -33 -48 c-254 -373 -360 -523 -373 -528 -9
-3 -264 -6 -568 -6 -416 0 -555 3 -564 12 -18 18 -17 988 1 1007 10 11 148 12
766 7 415 -4 759 -9 763 -12z m288 -9 c0 -23 -51 -95 -66 -95 -10 0 -14 14
-14 48 0 58 3 62 47 62 23 0 33 -5 33 -15z m-7046 -1221 c3 -9 6 -264 6 -568
0 -416 -3 -555 -12 -564 -18 -18 -951 -17 -966 1 -11 14 -322 1103 -322 1130
0 16 37 17 644 17 578 0 644 -2 650 -16z m1624 -561 l-3 -578 -705 0 -705 0
-3 578 -2 577 710 0 710 0 -2 -577z m1640 3 c2 -449 0 -571 -10 -578 -7 -4
-326 -8 -709 -8 -527 0 -698 3 -707 12 -9 9 -12 148 -12 564 0 304 3 560 6
568 6 15 75 16 718 14 l711 -3 3 -569z m1750 -3 l-3 -578 -750 -3 c-412 -1
-760 0 -772 3 l-23 5 0 569 c0 312 3 571 7 574 3 4 352 7 775 7 l768 0 -2
-577z m1202 566 c0 -14 -757 -1120 -778 -1136 -21 -17 -193 -18 -210 -1 -9 9
-12 150 -12 573 0 309 3 565 7 568 12 12 993 8 993 -4z"/>
<path d="M2738 1645 c-164 -37 -290 -107 -413 -230 -201 -201 -283 -467 -226
-741 58 -281 250 -510 511 -608 75 -28 248 -66 300 -66 51 0 238 44 310 73
251 102 440 334 496 606 21 109 15 274 -16 381 -78 272 -297 491 -570 570 -99
29 -296 36 -392 15z"/>
<path d="M8900 1645 c-317 -64 -557 -292 -641 -610 -16 -60 -21 -110 -21 -200
0 -90 5 -140 21 -200 54 -204 170 -370 335 -479 104 -70 202 -109 343 -137
103 -21 119 -22 190 -10 129 21 194 40 290 86 206 100 350 264 424 485 27 81
33 113 36 220 7 193 -31 337 -129 487 -181 278 -526 423 -848 358z"/>
</g>
</svg>
